<?xml version="1.0" encoding="UTF-8"?><svg id="UI" xmlns="http://www.w3.org/2000/svg" viewBox="0 0 72 72"><path d="M20.83,20.73l-3.83-3.83.71-.71,3.83,3.83-.71.71ZM26.62,16.28l-2.71-4.69-.87.5,2.71,4.69.87-.5ZM32.51,13.98l-1.4-5.23-.97.26,1.4,5.23.97-.26ZM38.93,7.64v-2.91h-1.5v8.43h1.39s0,0,0,0c14.58.38,26.01,13.67,23.24,28.83-1.75,9.64-9.45,17.42-19.07,19.29-12.84,2.5-24.37-5.26-27.94-16.52l5.4-.61c.29-.03.4-.4.17-.59l-9.04-7.15c-.14-.11-.35-.09-.46.06l-7.05,8.96c-.18.23,0,.57.3.53l5.09-.57c3.8,13.7,17.16,23.49,32.38,21.66,13.58-1.64,24.52-12.71,25.98-26.31,1.9-17.66-11.72-32.67-28.9-33.1ZM15.04,30.74l-5.23-1.4-.26.97,5.23,1.4.26-.97ZM17.58,24.95l-4.69-2.71-.5.87,4.69,2.71.5-.87ZM50.27,26.66c.09,2.38-.86,4.69-2.61,6.31-.66.54-1.02,1.37-.97,2.23.51,9,.67,17.47.67,17.47.06,1.38-1.01,2.54-2.39,2.59s-2.54-1.01-2.59-2.39c0-.07,0-.13,0-.2,0,0,.05-2.55.19-6.36.1-3.1.26-7.04.49-11.11.05-.85-.3-1.68-.96-2.23-2.33-1.91-3.08-5.67-2.35-8.61.7-2.94,2.73-5.07,5.13-5.07,2.98,0,5.4,3.3,5.4,7.37h0ZM36.41,30.92c-1.05,1.85-2.43,1.46-2.77,3.06-.12.66-.17,1.32-.14,1.99.12,1.74.45,6.71.64,10.85.1,0,.1,5.59.08,5.75-.32,3.5-4.92,3.78-5.4,0-.24-1.86.05-8.13.76-16.59.05-.66,0-1.32-.14-1.96-.34-1.58-1.72-1.21-2.77-3.05-.68-1.21-.52-1.23-.52-10.01-.07-.75.48-1.41,1.22-1.47.75-.07,1.41.48,1.47,1.22,0,.08,0,.17,0,.25v5.39c-.02.37.27.69.65.7s.69-.27.7-.65c0-.02,0-.04,0-.06v-5.39c-.07-.75.48-1.41,1.22-1.47s1.41.48,1.47,1.22c0,.08,0,.17,0,.25v5.39c-.02.37.27.69.65.7s.69-.27.7-.65c0-.02,0-.04,0-.06v-5.39c-.07-.74.47-1.4,1.21-1.48.74-.07,1.4.47,1.48,1.21,0,.04,0,.09,0,.13h0c0,.05.01.09,0,.13,0,8.73.16,8.76-.52,9.97Z"/></svg>