<?xml version="1.0" encoding="UTF-8"?><svg xmlns="http://www.w3.org/2000/svg" viewBox="0 0 72 72"><g id="labels"><text transform="translate(26.95 82.12)" font-family="NeulisSans-Regular, &apos;Neulis Sans&apos;" font-size="7"><tspan x="0" y="0">NEXT</tspan></text></g><g id="UI"><path d="M51.13,39.96c-.28.28-.59.52-.91.73l-21.61,21.61c-2.11,2.11-5.53,2.11-7.64,0-2.11-2.11-2.11-5.53,0-7.64l18.61-18.61-18.7-18.71c-2.11-2.11-2.11-5.53,0-7.64,1.06-1.06,2.44-1.58,3.82-1.58s2.76.53,3.82,1.58l21.7,21.71c.32.21.63.44.91.73,1.08,1.08,1.6,2.5,1.57,3.91.03,1.41-.49,2.83-1.57,3.91Z"/></g></svg>